<?xml version="1.0" encoding="UTF-8" standalone="no"?>
<!-- Created with Inkscape (http://www.inkscape.org/) -->
<svg id="svg4874" xmlns:rdf="http://www.w3.org/1999/02/22-rdf-syntax-ns#" xmlns="http://www.w3.org/2000/svg" height="90" viewBox="0 0 90 90.000001" width="90" version="1.1" xmlns:cc="http://creativecommons.org/ns#" xmlns:dc="http://purl.org/dc/elements/1.1/">
 <metadata id="metadata4879">
  <rdf:RDF>
   <cc:Work rdf:about="">
    <dc:format>image/svg+xml</dc:format>
    <dc:type rdf:resource="http://purl.org/dc/dcmitype/StillImage"/>
    <dc:title/>
   </cc:Work>
  </rdf:RDF>
 </metadata>
 <g id="layer1" transform="translate(67.857 -84.505)">
  <g id="g4115">
   <rect id="rect4198-7" style="color:#000000;fill:none" height="90" width="90" y="84.505" x="-67.857"/>
   <rect id="rect3049" style="color:#000000;fill:none" transform="scale(-1,1)" height="90" width="90" y="84.505" x="-22.143"/>
   <path id="rect3765" style="color:#000000;fill:#808080" d="m-33.857 152.51h36l0.0000092-9-36 0.00001z"/>
   <path id="path4130" style="color:#000000;fill:#808080" d="m-30.717 162.59s-13.63-5.962-25.549-14.552c0-0.002 0-0.004 0.0051-0.009 0-0.002 0.0051-0.007 0.006-0.01 0-0.002 0.0051-0.007 0.006-0.01 0-0.002 0.0051-0.007 0.0051-0.01 12.573-8.8638 25.532-14.498 25.532-14.498z"/>
   <path id="path4118" style="color:#000000;fill:#808080" d="m-11.857 115.51h-36l-0.000009-9 36 0.00001z"/>
   <path id="path4120" style="color:#000000;fill:#808080" d="m-14.998 125.59s13.63-5.962 25.549-14.552c0-0.002 0-0.004-0.0051-0.009 0-0.002-0.0051-0.007-0.006-0.01 0-0.002-0.0051-0.007-0.006-0.01 0-0.002-0.0051-0.007-0.0051-0.01-12.573-8.8638-25.532-14.498-25.532-14.498z"/>
  </g>
 </g>
</svg>
